<svg xmlns="http://www.w3.org/2000/svg" width="147.1" height="121.46" viewBox="0 0 147.1 121.46">
  <g id="Groupe_154" data-name="Groupe 154" transform="translate(-899.7 -938.21)">
    <g id="Tracé_40" data-name="Tracé 40">
      <path id="Tracé_52" data-name="Tracé 52" d="M998.68,964.61H929.07v83.95l-8.03,1.83L899.7,959.34l92.79-21.13Z" fill="none"/>
      <path id="Tracé_53" data-name="Tracé 53" d="M1013.84,1029.27h-.01l-3.64.83,3.02-3.46.01-.01Z" fill="none"/>
      <path id="Tracé_54" data-name="Tracé 54" d="M1013.21,1026.64l-3.02,3.46,3.64-.83Zm-20.72-88.43L899.7,959.34l21.34,91.05,8.03-1.83v-4.3l-4.89,1.11-19.43-82.88,84.6-19.26,5.01,21.38h4.32Z" fill="#05699f"/>
    </g>
    <g id="Groupe_114" data-name="Groupe 114">
      <g id="noun-picture-1238753">
        <path id="Tracé_55" data-name="Tracé 55" d="M929.07,964.61v56.12l28.63-32.71,36.61,41.38,3.17,3.59,4.59,5.19-17.21,19.39h1.29l24.03-27.47h.01l3.02-3.46.01-.01,6.94-7.93,24.54,26.96V964.61Zm78.28,36.98h-.01a9.8,9.8,0,0,1-1.8.16,10.217,10.217,0,0,1-6.68-17.95,9.909,9.909,0,0,1,3.82-2.09h.01a9.918,9.918,0,0,1,2.85-.41,10.225,10.225,0,0,1,1.81,20.29Z" fill="none" stroke="#05699f" stroke-linecap="round" stroke-linejoin="round" stroke-width="4.2"/>
        <path id="Tracé_56" data-name="Tracé 56" d="M1015.77,991.53a10.225,10.225,0,0,1-8.42,10.06h-.01a9.8,9.8,0,0,1-1.8.16,10.217,10.217,0,0,1-6.68-17.95,9.909,9.909,0,0,1,3.82-2.09h.01a9.918,9.918,0,0,1,2.85-.41,10.243,10.243,0,0,1,10.23,10.23Z" fill="none" stroke="#05699f" stroke-linecap="round" stroke-linejoin="round" stroke-width="4.2"/>
        <path id="Tracé_57" data-name="Tracé 57" d="M1044.7,1045.66v11.91H986.15l24.03-27.47h.01l3.02-3.46.01-.01,6.94-7.93Z" fill="none" stroke="#05699f" stroke-linecap="round" stroke-linejoin="round" stroke-width="4.2"/>
        <path id="Tracé_58" data-name="Tracé 58" d="M1044.7,1045.66v11.91H986.15l24.03-27.47h.01l3.02-3.46.01-.01,6.94-7.93Z" fill="none" stroke="#05699f" stroke-linecap="round" stroke-linejoin="round" stroke-width="4.2"/>
        <path id="Tracé_59" data-name="Tracé 59" d="M1002.07,1038.18l-17.21,19.39H929.07v-36.84l28.63-32.71,36.61,41.38,3.17,3.59Z" fill="none" stroke="#05699f" stroke-linecap="round" stroke-linejoin="round" stroke-width="4.2"/>
      </g>
    </g>
  </g>
</svg>
